{
    "asset" : {
        "generator" : "Khronos glTF Blender I/O v1.6.16",
        "version" : "2.0"
    },
    "scene" : 0,
    "scenes" : [
        {
            "name" : "Scene",
            "nodes" : [
                7,
                13,
                14,
                15,
                16,
                17
            ]
        }
    ],
    "nodes" : [
        {
            "mesh" : 0,
            "name" : "Mesh_0",
            "translation" : [
                0,
                0.01495160162448883,
                0
            ]
        },
        {
            "mesh" : 1,
            "name" : "Mesh_1",
            "translation" : [
                0,
                0.01495160162448883,
                0
            ]
        },
        {
            "mesh" : 2,
            "name" : "Mesh_2",
            "translation" : [
                0,
                0.01495160162448883,
                0
            ]
        },
        {
            "mesh" : 3,
            "name" : "Mesh_3",
            "translation" : [
                0,
                0.01495160162448883,
                0
            ]
        },
        {
            "mesh" : 4,
            "name" : "Mesh_4",
            "translation" : [
                0,
                0.01495160162448883,
                0
            ]
        },
        {
            "children" : [
                0,
                1,
                2,
                3,
                4
            ],
            "name" : "earring v2.obj.cleaner.materialmerger.gles"
        },
        {
            "children" : [
                5
            ],
            "name" : "RootNode (model correction matrix)"
        },
        {
            "children" : [
                6
            ],
            "name" : "RootNode (gltf orientation matrix)",
            "rotation" : [
                -0.7071068286895752,
                0,
                0,
                0.7071068286895752
            ],
            "scale" : [
                85.57304382324219,
                85.57304382324219,
                85.57304382324219
            ]
        },
        {
            "name" : "pCylinder8",
            "scale" : [
                0.7183103561401367,
                0.958818793296814,
                0.7183103561401367
            ],
            "translation" : [
                0.21939553320407867,
                -2.193385362625122,
                0
            ]
        },
        {
            "name" : "pSphere2"
        },
        {
            "children" : [
                8,
                9
            ],
            "name" : "RootNode"
        },
        {
            "children" : [
                10
            ],
            "name" : "885975e18c7e4daaaae1532613583803.fbx",
            "rotation" : [
                0.7071068286895752,
                0,
                0,
                0.7071068286895752
            ]
        },
        {
            "children" : [
                11
            ],
            "name" : "RootNode (model correction matrix).001"
        },
        {
            "children" : [
                12
            ],
            "name" : "RootNode (gltf orientation matrix).001",
            "rotation" : [
                -0.7071068286895752,
                0,
                0,
                0.7071068286895752
            ]
        },
        {
            "name" : "Light.001",
            "rotation" : [
                0.16907575726509094,
                0.7558803558349609,
                -0.27217137813568115,
                0.570947527885437
            ],
            "translation" : [
                4.076245307922363,
                5.903861999511719,
                -1.0054539442062378
            ]
        },
        {
            "name" : "Camera.001",
            "rotation" : [
                0.483536034822464,
                0.33687159419059753,
                -0.20870360732078552,
                0.7804827094078064
            ],
            "translation" : [
                7.358891487121582,
                4.958309173583984,
                6.925790786743164
            ]
        },
        {
            "name" : "Light",
            "rotation" : [
                0.16907575726509094,
                0.7558803558349609,
                -0.27217137813568115,
                0.570947527885437
            ],
            "translation" : [
                4.076245307922363,
                5.903861999511719,
                -1.0054539442062378
            ]
        },
        {
            "name" : "Camera",
            "rotation" : [
                0.483536034822464,
                0.33687159419059753,
                -0.20870360732078552,
                0.7804827094078064
            ],
            "translation" : [
                7.358891487121582,
                4.958309173583984,
                6.925790786743164
            ]
        }
    ],
    "materials" : [
        {
            "doubleSided" : true,
            "name" : "black_high_gloss_plastic",
            "pbrMetallicRoughness" : {
                "baseColorTexture" : {
                    "index" : 0
                },
                "metallicFactor" : 0,
                "roughnessFactor" : 0.6000000238418579
            }
        },
        {
            "alphaMode" : "BLEND",
            "doubleSided" : true,
            "emissiveTexture" : {
                "index" : 1
            },
            "name" : "blue_high_gloss_plastic",
            "pbrMetallicRoughness" : {
                "baseColorFactor" : [
                    1,
                    1,
                    1,
                    0.949999988079071
                ],
                "baseColorTexture" : {
                    "index" : 2
                },
                "metallicFactor" : 0,
                "roughnessFactor" : 0.6000000238418579
            }
        },
        {
            "doubleSided" : true,
            "name" : "color",
            "pbrMetallicRoughness" : {
                "baseColorTexture" : {
                    "index" : 3
                },
                "metallicFactor" : 0,
                "roughnessFactor" : 0.6000000238418579
            }
        },
        {
            "doubleSided" : true,
            "name" : "red_high_gloss_plastic",
            "pbrMetallicRoughness" : {
                "baseColorTexture" : {
                    "index" : 4
                },
                "metallicFactor" : 0,
                "roughnessFactor" : 0.6000000238418579
            }
        },
        {
            "doubleSided" : true,
            "name" : "yellow_high_gloss_plastic",
            "pbrMetallicRoughness" : {
                "baseColorTexture" : {
                    "index" : 5
                },
                "metallicFactor" : 0,
                "roughnessFactor" : 0.6000000238418579
            }
        }
    ],
    "meshes" : [
        {
            "name" : "Mesh_0",
            "primitives" : [
                {
                    "attributes" : {
                        "POSITION" : 0,
                        "NORMAL" : 1,
                        "TEXCOORD_0" : 2
                    },
                    "indices" : 3,
                    "material" : 0
                }
            ]
        },
        {
            "name" : "Mesh_1",
            "primitives" : [
                {
                    "attributes" : {
                        "POSITION" : 4,
                        "NORMAL" : 5,
                        "TEXCOORD_0" : 6
                    },
                    "indices" : 7,
                    "material" : 1
                }
            ]
        },
        {
            "name" : "Mesh_2",
            "primitives" : [
                {
                    "attributes" : {
                        "POSITION" : 8,
                        "NORMAL" : 9,
                        "TEXCOORD_0" : 10
                    },
                    "indices" : 11,
                    "material" : 2
                }
            ]
        },
        {
            "name" : "Mesh_3",
            "primitives" : [
                {
                    "attributes" : {
                        "POSITION" : 12,
                        "NORMAL" : 13,
                        "TEXCOORD_0" : 14
                    },
                    "indices" : 15,
                    "material" : 3
                }
            ]
        },
        {
            "name" : "Mesh_4",
            "primitives" : [
                {
                    "attributes" : {
                        "POSITION" : 16,
                        "NORMAL" : 17,
                        "TEXCOORD_0" : 18
                    },
                    "indices" : 19,
                    "material" : 4
                }
            ]
        }
    ],
    "textures" : [
        {
            "sampler" : 0,
            "source" : 0
        },
        {
            "sampler" : 0,
            "source" : 1
        },
        {
            "sampler" : 0,
            "source" : 2
        },
        {
            "sampler" : 0,
            "source" : 3
        },
        {
            "sampler" : 0,
            "source" : 4
        },
        {
            "sampler" : 0,
            "source" : 5
        }
    ],
    "images" : [
        {
            "mimeType" : "image/jpeg",
            "name" : "black_high_gloss_plastic_baseColor",
            "uri" : "black_high_gloss_plastic_baseColor.jpg"
        },
        {
            "mimeType" : "image/jpeg",
            "name" : "blue_high_gloss_plastic_emissive",
            "uri" : "blue_high_gloss_plastic_emissive.jpg"
        },
        {
            "mimeType" : "image/png",
            "name" : "blue_high_gloss_plastic_baseColor",
            "uri" : "blue_high_gloss_plastic_baseColor.png"
        },
        {
            "mimeType" : "image/jpeg",
            "name" : "color_baseColor",
            "uri" : "color_baseColor.jpg"
        },
        {
            "mimeType" : "image/jpeg",
            "name" : "red_high_gloss_plastic_baseColor",
            "uri" : "red_high_gloss_plastic_baseColor.jpg"
        },
        {
            "mimeType" : "image/jpeg",
            "name" : "yellow_high_gloss_plastic_baseColor",
            "uri" : "yellow_high_gloss_plastic_baseColor.jpg"
        }
    ],
    "accessors" : [
        {
            "bufferView" : 0,
            "componentType" : 5126,
            "count" : 154,
            "max" : [
                0.006456410977989435,
                -0.00501667894423008,
                0.0528702512383461
            ],
            "min" : [
                -0.0015435890527442098,
                -0.020016679540276527,
                0.044870249927043915
            ],
            "type" : "VEC3"
        },
        {
            "bufferView" : 1,
            "componentType" : 5126,
            "count" : 154,
            "type" : "VEC3"
        },
        {
            "bufferView" : 2,
            "componentType" : 5126,
            "count" : 154,
            "type" : "VEC2"
        },
        {
            "bufferView" : 3,
            "componentType" : 5123,
            "count" : 408,
            "type" : "SCALAR"
        },
        {
            "bufferView" : 4,
            "componentType" : 5126,
            "count" : 195,
            "max" : [
                0.00477463286370039,
                -0.014996680431067944,
                0.006868225056678057
            ],
            "min" : [
                0.00013818869774695486,
                -0.016016680747270584,
                0.0022317799739539623
            ],
            "type" : "VEC3"
        },
        {
            "bufferView" : 5,
            "componentType" : 5126,
            "count" : 195,
            "type" : "VEC3"
        },
        {
            "bufferView" : 6,
            "componentType" : 5126,
            "count" : 195,
            "type" : "VEC2"
        },
        {
            "bufferView" : 7,
            "componentType" : 5123,
            "count" : 210,
            "type" : "SCALAR"
        },
        {
            "bufferView" : 8,
            "componentType" : 5126,
            "count" : 17576,
            "max" : [
                0.007544960826635361,
                -0.005910058971494436,
                0.05315310135483742
            ],
            "min" : [
                -0.0026321399491280317,
                -0.016754580661654472,
                0.0003000014112330973
            ],
            "type" : "VEC3"
        },
        {
            "bufferView" : 9,
            "componentType" : 5126,
            "count" : 17576,
            "type" : "VEC3"
        },
        {
            "bufferView" : 10,
            "componentType" : 5126,
            "count" : 17576,
            "type" : "VEC2"
        },
        {
            "bufferView" : 11,
            "componentType" : 5123,
            "count" : 85848,
            "type" : "SCALAR"
        },
        {
            "bufferView" : 12,
            "componentType" : 5126,
            "count" : 613,
            "max" : [
                0.007544960826635361,
                -0.014278779737651348,
                0.0379406213760376
            ],
            "min" : [
                -0.0026321399491280317,
                -0.016754580661654472,
                0.0003000014112330973
            ],
            "type" : "VEC3"
        },
        {
            "bufferView" : 13,
            "componentType" : 5126,
            "count" : 613,
            "type" : "VEC3"
        },
        {
            "bufferView" : 14,
            "componentType" : 5126,
            "count" : 613,
            "type" : "VEC2"
        },
        {
            "bufferView" : 15,
            "componentType" : 5123,
            "count" : 1470,
            "type" : "SCALAR"
        },
        {
            "bufferView" : 16,
            "componentType" : 5126,
            "count" : 426,
            "max" : [
                0.006739254109561443,
                -0.006155048962682486,
                0.05315310135483742
            ],
            "min" : [
                -0.0018264319514855742,
                -0.016016680747270584,
                0.04458741098642349
            ],
            "type" : "VEC3"
        },
        {
            "bufferView" : 17,
            "componentType" : 5126,
            "count" : 426,
            "type" : "VEC3"
        },
        {
            "bufferView" : 18,
            "componentType" : 5126,
            "count" : 426,
            "type" : "VEC2"
        },
        {
            "bufferView" : 19,
            "componentType" : 5123,
            "count" : 756,
            "type" : "SCALAR"
        }
    ],
    "bufferViews" : [
        {
            "buffer" : 0,
            "byteLength" : 1848,
            "byteOffset" : 0
        },
        {
            "buffer" : 0,
            "byteLength" : 1848,
            "byteOffset" : 1848
        },
        {
            "buffer" : 0,
            "byteLength" : 1232,
            "byteOffset" : 3696
        },
        {
            "buffer" : 0,
            "byteLength" : 816,
            "byteOffset" : 4928
        },
        {
            "buffer" : 0,
            "byteLength" : 2340,
            "byteOffset" : 5744
        },
        {
            "buffer" : 0,
            "byteLength" : 2340,
            "byteOffset" : 8084
        },
        {
            "buffer" : 0,
            "byteLength" : 1560,
            "byteOffset" : 10424
        },
        {
            "buffer" : 0,
            "byteLength" : 420,
            "byteOffset" : 11984
        },
        {
            "buffer" : 0,
            "byteLength" : 210912,
            "byteOffset" : 12404
        },
        {
            "buffer" : 0,
            "byteLength" : 210912,
            "byteOffset" : 223316
        },
        {
            "buffer" : 0,
            "byteLength" : 140608,
            "byteOffset" : 434228
        },
        {
            "buffer" : 0,
            "byteLength" : 171696,
            "byteOffset" : 574836
        },
        {
            "buffer" : 0,
            "byteLength" : 7356,
            "byteOffset" : 746532
        },
        {
            "buffer" : 0,
            "byteLength" : 7356,
            "byteOffset" : 753888
        },
        {
            "buffer" : 0,
            "byteLength" : 4904,
            "byteOffset" : 761244
        },
        {
            "buffer" : 0,
            "byteLength" : 2940,
            "byteOffset" : 766148
        },
        {
            "buffer" : 0,
            "byteLength" : 5112,
            "byteOffset" : 769088
        },
        {
            "buffer" : 0,
            "byteLength" : 5112,
            "byteOffset" : 774200
        },
        {
            "buffer" : 0,
            "byteLength" : 3408,
            "byteOffset" : 779312
        },
        {
            "buffer" : 0,
            "byteLength" : 1512,
            "byteOffset" : 782720
        }
    ],
    "samplers" : [
        {
            "magFilter" : 9729,
            "minFilter" : 9987
        }
    ],
    "buffers" : [
        {
            "byteLength" : 784232,
            "uri" : "earring.bin"
        }
    ]
}
