{
    "asset" : {
        "generator" : "Khronos glTF Blender I/O v1.6.16",
        "version" : "2.0"
    },
    "scene" : 0,
    "scenes" : [
        {
            "name" : "Scene",
            "nodes" : [
                13,
                14,
                15,
                18,
                19,
                20,
                21,
                22
            ]
        }
    ],
    "nodes" : [
        {
            "mesh" : 0,
            "name" : "Circle_M_Gold_0"
        },
        {
            "mesh" : 1,
            "name" : "Ruby_M_Gem_0"
        },
        {
            "children" : [
                1
            ],
            "name" : "Ruby",
            "translation" : [
                0,
                0,
                0.11372030526399612
            ]
        },
        {
            "mesh" : 2,
            "name" : "Torus_M_Gold_0"
        },
        {
            "children" : [
                3
            ],
            "name" : "Torus",
            "rotation" : [
                0,
                -0.3643934428691864,
                0,
                0.9312450885772705
            ],
            "translation" : [
                -0.015062190592288971,
                1.6392176151275635,
                0.09953061491250992
            ]
        },
        {
            "mesh" : 3,
            "name" : "Torus.001_M_Gold_0"
        },
        {
            "mesh" : 4,
            "name" : "Torus.001_M_Gold_0.001"
        },
        {
            "mesh" : 5,
            "name" : "Torus.001_M_Gold_0.002"
        },
        {
            "children" : [
                5,
                6,
                7
            ],
            "name" : "Torus.001",
            "translation" : [
                0,
                -0.09540076553821564,
                0
            ]
        },
        {
            "children" : [
                0,
                2,
                4,
                8
            ],
            "name" : "Circle",
            "scale" : [
                0.9139362573623657,
                0.9139362573623657,
                0.9139366149902344
            ]
        },
        {
            "children" : [
                9
            ],
            "name" : "RootNode"
        },
        {
            "children" : [
                10
            ],
            "name" : "723fca6e55a64ffb83ee3240fc56f5a4.fbx",
            "rotation" : [
                0.7071068286895752,
                0,
                0,
                0.7071068286895752
            ]
        },
        {
            "children" : [
                11
            ],
            "name" : "RootNode (model correction matrix)",
            "rotation" : [
                0,
                0,
                0.026917217299342155,
                0.9996376633644104
            ],
            "translation" : [
                -1.3256746530532837,
                0.09514513611793518,
                0
            ]
        },
        {
            "children" : [
                12
            ],
            "name" : "RootNode (gltf orientation matrix)",
            "rotation" : [
                -0.7071068286895752,
                0,
                0,
                0.7071068286895752
            ],
            "scale" : [
                0.4881174862384796,
                0.4881174862384796,
                0.4881174862384796
            ],
            "translation" : [
                0.6328113675117493,
                0,
                0
            ]
        },
        {
            "name" : "Light.001",
            "rotation" : [
                0.16907575726509094,
                0.7558803558349609,
                -0.27217137813568115,
                0.570947527885437
            ],
            "translation" : [
                4.127521991729736,
                5.903861999511719,
                1.4358608722686768
            ]
        },
        {
            "name" : "Camera.001",
            "rotation" : [
                0.483536034822464,
                0.33687159419059753,
                -0.20870360732078552,
                0.7804827094078064
            ],
            "translation" : [
                7.358891487121582,
                4.958309173583984,
                6.925790786743164
            ]
        },
        {
            "name" : "ring.obj.cleaner.materialmerger.gles"
        },
        {
            "children" : [
                16
            ],
            "name" : "RootNode (model correction matrix).001"
        },
        {
            "children" : [
                17
            ],
            "name" : "RootNode (gltf orientation matrix).001",
            "rotation" : [
                -0.7071068286895752,
                0,
                0,
                0.7071068286895752
            ],
            "translation" : [
                -0.6789970993995667,
                0,
                0
            ]
        },
        {
            "name" : "Light.002",
            "rotation" : [
                0.16907575726509094,
                0.7558803558349609,
                -0.27217137813568115,
                0.570947527885437
            ],
            "translation" : [
                4.076245307922363,
                5.903861999511719,
                -1.0054539442062378
            ]
        },
        {
            "name" : "Camera.002",
            "rotation" : [
                0.483536034822464,
                0.33687159419059753,
                -0.20870360732078552,
                0.7804827094078064
            ],
            "translation" : [
                7.358891487121582,
                4.958309173583984,
                6.925790786743164
            ]
        },
        {
            "name" : "Light",
            "rotation" : [
                0.16907575726509094,
                0.7558803558349609,
                -0.27217137813568115,
                0.570947527885437
            ],
            "translation" : [
                4.127521991729736,
                5.903861999511719,
                1.4358608722686768
            ]
        },
        {
            "name" : "Camera",
            "rotation" : [
                0.483536034822464,
                0.33687159419059753,
                -0.20870360732078552,
                0.7804827094078064
            ],
            "translation" : [
                7.358891487121582,
                4.958309173583984,
                6.925790786743164
            ]
        }
    ],
    "materials" : [
        {
            "doubleSided" : true,
            "name" : "M_Gold",
            "pbrMetallicRoughness" : {
                "baseColorFactor" : [
                    0.20904389023780823,
                    0.10816819220781326,
                    0.020950010046362877,
                    1
                ],
                "metallicFactor" : 0.5670458674430847,
                "roughnessFactor" : 0.3346586227416992
            }
        },
        {
            "alphaMode" : "BLEND",
            "name" : "M_Gem",
            "pbrMetallicRoughness" : {
                "baseColorFactor" : [
                    0.11106511205434799,
                    0.003407297423109412,
                    0.003407297423109412,
                    0.10000000149011612
                ],
                "metallicFactor" : 0.0959906354546547,
                "roughnessFactor" : 0.005864069331437349
            }
        }
    ],
    "meshes" : [
        {
            "name" : "Circle_M_Gold_0",
            "primitives" : [
                {
                    "attributes" : {
                        "POSITION" : 0,
                        "NORMAL" : 1,
                        "TEXCOORD_0" : 2
                    },
                    "indices" : 3,
                    "material" : 0
                }
            ]
        },
        {
            "name" : "Ruby_M_Gem_0",
            "primitives" : [
                {
                    "attributes" : {
                        "POSITION" : 4,
                        "NORMAL" : 5
                    },
                    "indices" : 6,
                    "material" : 1
                }
            ]
        },
        {
            "name" : "Torus_M_Gold_0",
            "primitives" : [
                {
                    "attributes" : {
                        "POSITION" : 7,
                        "NORMAL" : 8,
                        "TEXCOORD_0" : 9
                    },
                    "indices" : 10,
                    "material" : 0
                }
            ]
        },
        {
            "name" : "Torus.001_M_Gold_0",
            "primitives" : [
                {
                    "attributes" : {
                        "POSITION" : 11,
                        "NORMAL" : 12,
                        "TEXCOORD_0" : 13
                    },
                    "indices" : 14,
                    "material" : 0
                }
            ]
        },
        {
            "name" : "Torus.001_M_Gold_0.001",
            "primitives" : [
                {
                    "attributes" : {
                        "POSITION" : 15,
                        "NORMAL" : 16,
                        "TEXCOORD_0" : 17
                    },
                    "indices" : 18,
                    "material" : 0
                }
            ]
        },
        {
            "name" : "Torus.001_M_Gold_0.002",
            "primitives" : [
                {
                    "attributes" : {
                        "POSITION" : 19,
                        "NORMAL" : 20,
                        "TEXCOORD_0" : 21
                    },
                    "indices" : 22,
                    "material" : 0
                }
            ]
        }
    ],
    "accessors" : [
        {
            "bufferView" : 0,
            "componentType" : 5126,
            "count" : 37729,
            "max" : [
                0.995269238948822,
                1.6496716737747192,
                0.362326979637146
            ],
            "min" : [
                -0.995269238948822,
                -1.4104236364364624,
                0
            ],
            "type" : "VEC3"
        },
        {
            "bufferView" : 1,
            "componentType" : 5126,
            "count" : 37729,
            "type" : "VEC3"
        },
        {
            "bufferView" : 2,
            "componentType" : 5126,
            "count" : 37729,
            "type" : "VEC2"
        },
        {
            "bufferView" : 3,
            "componentType" : 5123,
            "count" : 225024,
            "type" : "SCALAR"
        },
        {
            "bufferView" : 4,
            "componentType" : 5126,
            "count" : 267,
            "max" : [
                0.8334853053092957,
                1.1738396883010864,
                0.38362979888916016
            ],
            "min" : [
                -0.8334853053092957,
                -1.1738396883010864,
                0.09789970517158508
            ],
            "type" : "VEC3"
        },
        {
            "bufferView" : 5,
            "componentType" : 5126,
            "count" : 267,
            "type" : "VEC3"
        },
        {
            "bufferView" : 6,
            "componentType" : 5123,
            "count" : 324,
            "type" : "SCALAR"
        },
        {
            "bufferView" : 7,
            "componentType" : 5126,
            "count" : 777,
            "max" : [
                0.04590797796845436,
                0.24600012600421906,
                0.10967914760112762
            ],
            "min" : [
                -0.04590797796845436,
                -0.1565340757369995,
                -0.10967911779880524
            ],
            "type" : "VEC3"
        },
        {
            "bufferView" : 8,
            "componentType" : 5126,
            "count" : 777,
            "type" : "VEC3"
        },
        {
            "bufferView" : 9,
            "componentType" : 5126,
            "count" : 777,
            "type" : "VEC2"
        },
        {
            "bufferView" : 10,
            "componentType" : 5123,
            "count" : 4032,
            "type" : "SCALAR"
        },
        {
            "bufferView" : 11,
            "componentType" : 5126,
            "count" : 67022,
            "max" : [
                0.7617365717887878,
                7.343050003051758,
                0.13238266110420227
            ],
            "min" : [
                -2.525402069091797,
                1.8283281326293945,
                -0.00848977267742157
            ],
            "type" : "VEC3"
        },
        {
            "bufferView" : 12,
            "componentType" : 5126,
            "count" : 67022,
            "type" : "VEC3"
        },
        {
            "bufferView" : 13,
            "componentType" : 5126,
            "count" : 67022,
            "type" : "VEC2"
        },
        {
            "bufferView" : 14,
            "componentType" : 5125,
            "count" : 344592,
            "type" : "SCALAR"
        },
        {
            "bufferView" : 15,
            "componentType" : 5126,
            "count" : 67018,
            "max" : [
                1.538888931274414,
                8.97459888458252,
                0.13119325041770935
            ],
            "min" : [
                -2.4109599590301514,
                5.703699111938477,
                -0.010521650314331055
            ],
            "type" : "VEC3"
        },
        {
            "bufferView" : 16,
            "componentType" : 5126,
            "count" : 67018,
            "type" : "VEC3"
        },
        {
            "bufferView" : 17,
            "componentType" : 5126,
            "count" : 67018,
            "type" : "VEC2"
        },
        {
            "bufferView" : 18,
            "componentType" : 5125,
            "count" : 344406,
            "type" : "SCALAR"
        },
        {
            "bufferView" : 19,
            "componentType" : 5126,
            "count" : 32704,
            "max" : [
                1.175768256187439,
                5.861130237579346,
                0.12941598892211914
            ],
            "min" : [
                0.7147862911224365,
                2.2684850692749023,
                0.01189953088760376
            ],
            "type" : "VEC3"
        },
        {
            "bufferView" : 20,
            "componentType" : 5126,
            "count" : 32704,
            "type" : "VEC3"
        },
        {
            "bufferView" : 21,
            "componentType" : 5126,
            "count" : 32704,
            "type" : "VEC2"
        },
        {
            "bufferView" : 22,
            "componentType" : 5123,
            "count" : 168090,
            "type" : "SCALAR"
        }
    ],
    "bufferViews" : [
        {
            "buffer" : 0,
            "byteLength" : 452748,
            "byteOffset" : 0
        },
        {
            "buffer" : 0,
            "byteLength" : 452748,
            "byteOffset" : 452748
        },
        {
            "buffer" : 0,
            "byteLength" : 301832,
            "byteOffset" : 905496
        },
        {
            "buffer" : 0,
            "byteLength" : 450048,
            "byteOffset" : 1207328
        },
        {
            "buffer" : 0,
            "byteLength" : 3204,
            "byteOffset" : 1657376
        },
        {
            "buffer" : 0,
            "byteLength" : 3204,
            "byteOffset" : 1660580
        },
        {
            "buffer" : 0,
            "byteLength" : 648,
            "byteOffset" : 1663784
        },
        {
            "buffer" : 0,
            "byteLength" : 9324,
            "byteOffset" : 1664432
        },
        {
            "buffer" : 0,
            "byteLength" : 9324,
            "byteOffset" : 1673756
        },
        {
            "buffer" : 0,
            "byteLength" : 6216,
            "byteOffset" : 1683080
        },
        {
            "buffer" : 0,
            "byteLength" : 8064,
            "byteOffset" : 1689296
        },
        {
            "buffer" : 0,
            "byteLength" : 804264,
            "byteOffset" : 1697360
        },
        {
            "buffer" : 0,
            "byteLength" : 804264,
            "byteOffset" : 2501624
        },
        {
            "buffer" : 0,
            "byteLength" : 536176,
            "byteOffset" : 3305888
        },
        {
            "buffer" : 0,
            "byteLength" : 1378368,
            "byteOffset" : 3842064
        },
        {
            "buffer" : 0,
            "byteLength" : 804216,
            "byteOffset" : 5220432
        },
        {
            "buffer" : 0,
            "byteLength" : 804216,
            "byteOffset" : 6024648
        },
        {
            "buffer" : 0,
            "byteLength" : 536144,
            "byteOffset" : 6828864
        },
        {
            "buffer" : 0,
            "byteLength" : 1377624,
            "byteOffset" : 7365008
        },
        {
            "buffer" : 0,
            "byteLength" : 392448,
            "byteOffset" : 8742632
        },
        {
            "buffer" : 0,
            "byteLength" : 392448,
            "byteOffset" : 9135080
        },
        {
            "buffer" : 0,
            "byteLength" : 261632,
            "byteOffset" : 9527528
        },
        {
            "buffer" : 0,
            "byteLength" : 336180,
            "byteOffset" : 9789160
        }
    ],
    "buffers" : [
        {
            "byteLength" : 10125340,
            "uri" : "scene.bin"
        }
    ]
}
