{
    "asset" : {
        "generator" : "Khronos glTF Blender I/O v1.6.16",
        "version" : "2.0"
    },
    "scene" : 0,
    "scenes" : [
        {
            "name" : "Scene",
            "nodes" : [
                5,
                6,
                7
            ]
        }
    ],
    "nodes" : [
        {
            "mesh" : 0,
            "name" : "Mesh_2"
        },
        {
            "mesh" : 1,
            "name" : "Mesh_3"
        },
        {
            "mesh" : 2,
            "name" : "Mesh_4"
        },
        {
            "children" : [
                0,
                1,
                2
            ],
            "name" : "ring.obj.cleaner.materialmerger.gles"
        },
        {
            "children" : [
                3
            ],
            "name" : "RootNode (model correction matrix)"
        },
        {
            "children" : [
                4
            ],
            "name" : "RootNode (gltf orientation matrix)",
            "rotation" : [
                -0.7071068286895752,
                0,
                0,
                0.7071068286895752
            ]
        },
        {
            "name" : "Light",
            "rotation" : [
                0.16907575726509094,
                0.7558803558349609,
                -0.27217137813568115,
                0.570947527885437
            ],
            "translation" : [
                4.076245307922363,
                5.903861999511719,
                -1.0054539442062378
            ]
        },
        {
            "name" : "Camera",
            "rotation" : [
                0.483536034822464,
                0.33687159419059753,
                -0.20870360732078552,
                0.7804827094078064
            ],
            "translation" : [
                7.358891487121582,
                4.958309173583984,
                6.925790786743164
            ]
        }
    ],
    "materials" : [
        {
            "doubleSided" : true,
            "name" : "phong3SG",
            "pbrMetallicRoughness" : {
                "metallicFactor" : 0,
                "roughnessFactor" : 0.6000000238418579
            }
        },
        {
            "alphaMode" : "BLEND",
            "doubleSided" : true,
            "name" : "blinn1SG",
            "pbrMetallicRoughness" : {
                "baseColorFactor" : [
                    1,
                    1,
                    1,
                    0.695702314376831
                ],
                "metallicFactor" : 0,
                "roughnessFactor" : 0.6000000238418579
            }
        },
        {
            "doubleSided" : true,
            "name" : "blinn3SG",
            "pbrMetallicRoughness" : {
                "metallicFactor" : 0,
                "roughnessFactor" : 0.6000000238418579
            }
        }
    ],
    "meshes" : [
        {
            "name" : "Mesh_2",
            "primitives" : [
                {
                    "attributes" : {
                        "POSITION" : 0,
                        "NORMAL" : 1,
                        "TEXCOORD_0" : 2
                    },
                    "indices" : 3,
                    "material" : 0
                }
            ]
        },
        {
            "name" : "Mesh_3",
            "primitives" : [
                {
                    "attributes" : {
                        "POSITION" : 4,
                        "NORMAL" : 5
                    },
                    "indices" : 6,
                    "material" : 1
                }
            ]
        },
        {
            "name" : "Mesh_4",
            "primitives" : [
                {
                    "attributes" : {
                        "POSITION" : 7,
                        "NORMAL" : 8,
                        "TEXCOORD_0" : 9
                    },
                    "indices" : 10,
                    "material" : 2
                }
            ]
        }
    ],
    "accessors" : [
        {
            "bufferView" : 0,
            "componentType" : 5126,
            "count" : 4098,
            "max" : [
                0.9400389790534973,
                0.1964469999074936,
                0.9478870034217834
            ],
            "min" : [
                -0.9400380253791809,
                -0.19032399356365204,
                -0.9338669776916504
            ],
            "type" : "VEC3"
        },
        {
            "bufferView" : 1,
            "componentType" : 5126,
            "count" : 4098,
            "type" : "VEC3"
        },
        {
            "bufferView" : 2,
            "componentType" : 5126,
            "count" : 4098,
            "type" : "VEC2"
        },
        {
            "bufferView" : 3,
            "componentType" : 5123,
            "count" : 22704,
            "type" : "SCALAR"
        },
        {
            "bufferView" : 4,
            "componentType" : 5126,
            "count" : 855,
            "max" : [
                0.5,
                0.5,
                1.5766689777374268
            ],
            "min" : [
                -0.5,
                -0.5,
                0.9666690230369568
            ],
            "type" : "VEC3"
        },
        {
            "bufferView" : 5,
            "componentType" : 5126,
            "count" : 855,
            "type" : "VEC3"
        },
        {
            "bufferView" : 6,
            "componentType" : 5123,
            "count" : 912,
            "type" : "SCALAR"
        },
        {
            "bufferView" : 7,
            "componentType" : 5126,
            "count" : 7926,
            "max" : [
                0.9450340270996094,
                0.5440199971199036,
                1.4736579656600952
            ],
            "min" : [
                -0.9450340270996094,
                -0.5440199971199036,
                -0.9388440251350403
            ],
            "type" : "VEC3"
        },
        {
            "bufferView" : 8,
            "componentType" : 5126,
            "count" : 7926,
            "type" : "VEC3"
        },
        {
            "bufferView" : 9,
            "componentType" : 5126,
            "count" : 7926,
            "type" : "VEC2"
        },
        {
            "bufferView" : 10,
            "componentType" : 5123,
            "count" : 20556,
            "type" : "SCALAR"
        }
    ],
    "bufferViews" : [
        {
            "buffer" : 0,
            "byteLength" : 49176,
            "byteOffset" : 0
        },
        {
            "buffer" : 0,
            "byteLength" : 49176,
            "byteOffset" : 49176
        },
        {
            "buffer" : 0,
            "byteLength" : 32784,
            "byteOffset" : 98352
        },
        {
            "buffer" : 0,
            "byteLength" : 45408,
            "byteOffset" : 131136
        },
        {
            "buffer" : 0,
            "byteLength" : 10260,
            "byteOffset" : 176544
        },
        {
            "buffer" : 0,
            "byteLength" : 10260,
            "byteOffset" : 186804
        },
        {
            "buffer" : 0,
            "byteLength" : 1824,
            "byteOffset" : 197064
        },
        {
            "buffer" : 0,
            "byteLength" : 95112,
            "byteOffset" : 198888
        },
        {
            "buffer" : 0,
            "byteLength" : 95112,
            "byteOffset" : 294000
        },
        {
            "buffer" : 0,
            "byteLength" : 63408,
            "byteOffset" : 389112
        },
        {
            "buffer" : 0,
            "byteLength" : 41112,
            "byteOffset" : 452520
        }
    ],
    "buffers" : [
        {
            "byteLength" : 493632,
            "uri" : "data:application/octet-stream;base64,"
        }
    ]
}
